<svg xmlns="http://www.w3.org/2000/svg" width="299" height="80" viewBox="0 0 2988.96 800.63">
<g fill="#004AC6" stroke="none">
<g transform="translate(0.000000,791.000000) scale(0.100000,-0.100000)"><path d="M55 7903 c-11 -3 -28 -12 -37 -21 -17 -14 -18 -214 -18 -3929 0 -3904 0 -3913 20 -3933 20 -20 31 -20 706 -18 l686 3 49 170 c133 458 233 933 280 1328 26 219 37 652 20 834 -56 608 -257 1126 -628 1616 -95 126 -177 219 -356 409 -76 81 -136 152 -132 158 10 16 42 12 195 -25 293 -72 601 -171 1189 -384 339 -122 409 -136 524 -106 148 39 365 191 562 396 133 138 183 204 395 524 294 442 453 663 663 925 304 378 679 758 936 948 101 75 211 142 233 142 28 0 22 -19 -38 -121 -239 -402 -523 -988 -707 -1459 -248 -631 -406 -1201 -612 -2197 -164 -797 -198 -948 -290 -1274 -194 -687 -484 -1295 -861 -1806 -30 -40 -54 -76 -54 -79 0 -14 794 4 930 20 458 56 851 170 1265 366 700 331 1312 890 1714 1565 335 563 513 1157 553 1846 36 631 -96 1289 -376 1874 -457 952 -1260 1678 -2223 2008 -395 136 -743 199 -1188 217 -238 9 -3365 12 -3400 3z m2597 -1804 c128 -36 222 -92 325 -195 81 -81 98 -105 142 -196 64 -134 76 -186 76 -338 0 -145 -19 -220 -88 -355 -62 -121 -190 -245 -317 -308 -134 -66 -200 -82 -345 -81 -107 1 -131 4 -215 32 -254 84 -434 279 -501 540 -35 139 -20 327 37 462 149 351 527 538 886 439z"/></g>
<path d="M847.0033265720081 791.0V316.40000000000003H967.3380121703854V445.3987829614605L949.047139959432 447.3241379310345Q951.935172413793 405.9290060851927 974.0767545638944 374.16064908722115Q996.2183367139959 342.3922920892495 1028.468032454361 324.5827586206897Q1060.717728194726 306.77322515212984 1094.411440162272 306.77322515212984Q1118.4783772819471 306.77322515212984 1140.138620689655 313.03062880324546Q1161.798864097363 319.2880324543611 1184.9031237322515 333.72819472616635L1127.1424746450305 441.5480730223124Q1116.5530223123733 435.7720081135903 1100.187505070994 430.95862068965516Q1083.8219878296145 426.1452332657201 1067.4564705882353 426.1452332657201Q1048.2029208924948 426.1452332657201 1030.393387423935 432.88397565922924Q1012.5838539553752 439.6227180527384 998.6250304259634 454.06288032454364Q984.6662068965517 468.5030425963489 976.0021095334685 492.56997971602436Q972.1513995943204 506.0474645030426 969.744705882353 526.7450304259635Q967.3380121703854 547.4425963488844 967.3380121703854 586.9123732251521V791.0Z M1561.3100202839757 791.0 1551.6832454361056 719.7618661257607V491.6073022312373Q1551.6832454361056 449.2494929006085 1525.2096146044626 428.55192697768763Q1498.7359837728195 407.85436105476674 1453.4901419878297 407.85436105476674Q1415.945720081136 407.85436105476674 1376.9572819472617 422.7758620689655Q1337.9688438133874 437.6973630831643 1308.12584178499 464.6523326572008L1247.4771602434078 382.8247464503043Q1297.5363894523327 342.3922920892495 1350.0023123732253 324.5827586206897Q1402.4682352941177 306.77322515212984 1463.1169168356998 306.77322515212984Q1561.3100202839757 306.77322515212984 1616.1826369168357 355.8697768762678Q1671.0552535496959 404.9663286004057 1671.0552535496959 491.6073022312373V791.0ZM1417.87107505071 800.6267748478701Q1365.886490872211 800.6267748478701 1324.9726977687628 781.3732251521299Q1284.0589046653145 762.1196754563895 1260.4733062880325 726.5006085192698Q1236.8877079107506 690.8815415821501 1236.8877079107506 644.6730223123732Q1236.8877079107506 603.2778904665315 1253.7345638945235 573.9162271805274Q1270.5814198782962 544.5545638945233 1298.4990669371198 529.1517241379311Q1322.5660040567952 514.7115618661257 1351.9276673427994 508.93549695740364Q1381.2893306288033 503.15943204868154 1414.983042596349 503.15943204868154H1562.2726977687626V591.7257606490872H1432.3112373225151Q1416.908397565923 591.7257606490872 1401.9868965517242 594.1324543610547Q1387.0653955375253 596.5391480730223 1376.4759432048681 605.2032454361055Q1366.849168356998 611.9419878296146 1362.035780933063 622.0501014198783Q1357.2223935091279 632.1582150101419 1357.2223935091279 644.6730223123732Q1357.2223935091279 671.6279918864097 1378.4012981744422 687.993509127789Q1399.5802028397566 704.3590263691683 1435.1992697768762 704.3590263691683Q1466.9676267748478 704.3590263691683 1493.4412576064908 690.4002028397565Q1519.9148884381339 676.4413793103448 1535.7990669371197 651.893103448276Q1551.6832454361056 627.344827586207 1551.6832454361056 595.5764705882353L1583.4516024340771 659.1131845841785Q1570.9367951318459 709.1724137931035 1545.4258417849899 740.4594320486815Q1519.9148884381339 771.7464503042596 1487.1838539553753 786.1866125760648Q1454.4528194726167 800.6267748478701 1417.87107505071 800.6267748478701Z M1932.9035294117648 791.0 1738.442677484787 316.40000000000003H1869.3668154158215L1981.0374036511157 635.046247464503L2094.6333468559837 316.40000000000003H2223.6321298174444L2031.0966328600405 791.0Z M2296.795618661258 791.0V316.40000000000003H2416.167626774848V791.0ZM2292.944908722109 243.23651115618668V120.01379310344828H2420.9810141987828V243.23651115618668Z M2751.1793914807304 800.6267748478701Q2681.8666125760647 800.6267748478701 2627.9566734279915 768.8584178498986Q2574.046734279919 737.090060851927 2542.7597160243404 680.7734279918864Q2511.4726977687624 624.4567951318459 2511.4726977687624 553.2186612576065Q2511.4726977687624 481.01784989858015 2542.278377281947 425.6638945233266Q2573.084056795132 370.30993914807306 2627.475334685598 338.5415821501015Q2681.8666125760647 306.77322515212984 2751.1793914807304 306.77322515212984Q2819.5294929006086 306.77322515212984 2873.4394320486817 338.5415821501015Q2927.3493711967544 370.30993914807306 2958.155050709939 425.6638945233266Q2988.9607302231234 481.01784989858015 2988.9607302231234 553.2186612576065Q2988.9607302231234 624.4567951318459 2958.155050709939 680.2920892494928Q2927.3493711967544 736.1273833671399 2873.4394320486817 768.3770791075051Q2819.5294929006086 800.6267748478701 2751.1793914807304 800.6267748478701ZM2751.1793914807304 695.6949290060852Q2787.761135902637 695.6949290060852 2814.23476673428 678.3667342799189Q2840.708397565923 661.0385395537526 2854.6672210953348 629.2701825557809Q2868.626044624746 597.5018255578093 2868.626044624746 553.2186612576065Q2868.626044624746 507.97281947261666 2854.6672210953348 476.6858012170386Q2840.708397565923 445.3987829614605 2814.23476673428 428.5519269776877Q2787.761135902637 411.70507099391483 2751.1793914807304 411.70507099391483Q2713.6349695740364 411.70507099391483 2686.68 428.5519269776877Q2659.7250304259633 445.3987829614605 2645.284868154158 476.6858012170386Q2630.844705882353 507.97281947261666 2630.844705882353 553.2186612576065Q2630.844705882353 597.5018255578093 2645.284868154158 629.2701825557809Q2659.7250304259633 661.0385395537526 2686.68 678.3667342799189Q2713.6349695740364 695.6949290060852 2751.1793914807304 695.6949290060852Z"/>
</g>
</svg>
