<?xml version="1.0" standalone="no"?>
<!DOCTYPE svg PUBLIC "-//W3C//DTD SVG 20010904//EN"
 "http://www.w3.org/TR/2001/REC-SVG-20010904/DTD/svg10.dtd">
<svg version="1.0" xmlns="http://www.w3.org/2000/svg"
 width="725.000000pt" height="791.000000pt" viewBox="0 0 725.000000 791.000000"
 preserveAspectRatio="xMidYMid meet">
<metadata>
Created by potrace 1.16, written by Peter Selinger 2001-2019
</metadata>
<g transform="translate(0.000000,791.000000) scale(0.100000,-0.100000)"
fill="#004ac6" stroke="none">
<path d="M55 7903 c-11 -3 -28 -12 -37 -21 -17 -14 -18 -214 -18 -3929 0
-3904 0 -3913 20 -3933 20 -20 31 -20 706 -18 l686 3 49 170 c133 458 233 933
280 1328 26 219 37 652 20 834 -56 608 -257 1126 -628 1616 -95 126 -177 219
-356 409 -76 81 -136 152 -132 158 10 16 42 12 195 -25 293 -72 601 -171 1189
-384 339 -122 409 -136 524 -106 148 39 365 191 562 396 133 138 183 204 395
524 294 442 453 663 663 925 304 378 679 758 936 948 101 75 211 142 233 142
28 0 22 -19 -38 -121 -239 -402 -523 -988 -707 -1459 -248 -631 -406 -1201
-612 -2197 -164 -797 -198 -948 -290 -1274 -194 -687 -484 -1295 -861 -1806
-30 -40 -54 -76 -54 -79 0 -14 794 4 930 20 458 56 851 170 1265 366 700 331
1312 890 1714 1565 335 563 513 1157 553 1846 36 631 -96 1289 -376 1874 -457
952 -1260 1678 -2223 2008 -395 136 -743 199 -1188 217 -238 9 -3365 12 -3400
3z m2597 -1804 c128 -36 222 -92 325 -195 81 -81 98 -105 142 -196 64 -134 76
-186 76 -338 0 -145 -19 -220 -88 -355 -62 -121 -190 -245 -317 -308 -134 -66
-200 -82 -345 -81 -107 1 -131 4 -215 32 -254 84 -434 279 -501 540 -35 139
-20 327 37 462 149 351 527 538 886 439z"/>
</g>
</svg>
