<svg xmlns="http://www.w3.org/2000/svg" viewBox="0.00 0.00 3915.77 1051.65">
<g fill="#004AC6" stroke="none">
<g transform="translate(0.000000,1039.000000) scale(0.100000,-0.100000)"><path d="M71 10377 c-19 -7 -42 -23 -53 -37 -18 -24 -18 -167 -16 -4683 l3
-4657 110 76 c61 43 371 251 690 465 319 213 668 451 775 529 342 251 457 321
639 391 175 67 430 107 601 94 319 -23 507 -78 890 -260 370 -174 444 -192
1015 -235 457 -34 532 -46 638 -103 115 -61 177 -168 163 -284 -8 -71 -29
-120 -69 -161 -80 -84 -178 -112 -392 -112 -211 0 -1143 36 -1498 59 -60 3
-111 3 -113 -1 -6 -9 144 -66 237 -89 249 -62 898 -121 1359 -123 249 -1 295
6 411 65 119 60 221 197 235 314 l6 50 115 60 c341 178 642 406 1133 860 227
210 275 250 350 289 152 80 293 65 350 -36 19 -34 22 -50 17 -104 -6 -82 -33
-138 -162 -329 -630 -939 -1451 -1611 -2290 -1874 -278 -87 -520 -125 -795
-125 -298 1 -468 30 -1140 194 -619 151 -740 172 -1000 173 -125 0 -202 -4
-269 -17 -300 -55 -557 -193 -886 -475 -100 -86 -295 -274 -295 -285 0 -10
3446 -6 3625 4 568 33 1104 144 1568 325 867 337 1690 962 2285 1734 595 772
945 1624 1071 2611 67 518 53 1108 -40 1654 -173 1021 -641 1947 -1339 2646
-761 764 -1769 1225 -2970 1360 -384 43 -400 43 -2705 46 -1665 2 -2229 -1
-2254 -9z m4565 -1511 c77 -35 145 -103 181 -180 24 -53 28 -73 28 -156 0 -87
-3 -101 -32 -161 -30 -61 -84 -121 -141 -159 l-23 -15 -9 -940 c-5 -517 -12
-1077 -15 -1245 -2 -168 -5 -333 -5 -367 0 -74 7 -72 -155 -47 l-103 16 -6
262 c-3 143 -11 724 -16 1291 -10 958 -12 1030 -28 1039 -42 24 -124 114 -149
164 -48 97 -41 261 14 351 49 79 143 149 230 171 65 16 164 6 229 -24z m-1115
-576 c149 -28 247 -115 333 -294 85 -177 164 -267 280 -317 l56 -24 0 -150 c0
-82 3 -233 6 -335 l7 -185 -59 -30 c-53 -27 -69 -30 -154 -30 -92 0 -96 -1
-140 -34 -93 -69 -217 -111 -333 -111 -68 0 -197 26 -197 40 0 4 17 29 39 56
38 49 86 133 79 140 -2 2 -28 -13 -58 -33 -215 -145 -444 -167 -650 -63 -92
47 -92 52 -4 99 43 23 96 56 118 73 52 40 126 110 126 119 0 4 -33 -7 -72 -26
-359 -164 -673 -138 -858 72 -22 25 -40 49 -40 54 0 4 15 10 33 13 17 3 64 10
104 15 40 6 109 23 155 37 90 27 288 121 288 136 0 5 -8 7 -17 4 -117 -35
-337 -66 -468 -66 -262 1 -441 72 -594 236 -102 109 -165 248 -104 230 61 -18
249 -28 423 -23 369 10 667 80 1120 262 356 142 438 162 581 135z m2194 -16
c39 -9 174 -59 300 -109 422 -169 673 -236 999 -266 133 -13 451 -6 530 11 72
15 76 4 31 -87 -77 -156 -246 -289 -435 -343 -157 -45 -438 -36 -664 21 -43
11 -80 18 -83 15 -14 -13 204 -117 310 -146 58 -17 237 -50 270 -50 16 0 5
-19 -41 -67 -131 -137 -305 -195 -509 -172 -96 11 -256 60 -352 108 -33 17
-64 31 -68 31 -4 0 15 -23 42 -51 51 -51 137 -113 234 -167 l55 -30 -49 -31
c-204 -130 -467 -111 -702 50 -23 16 -44 29 -48 29 -11 0 38 -86 81 -142 51
-65 50 -67 -44 -87 -144 -30 -301 3 -434 92 -62 42 -64 42 -153 42 -79 0 -97
4 -148 28 l-58 29 3 221 c1 122 4 274 6 337 l3 115 66 29 c105 48 169 120 250
283 82 163 144 237 236 283 34 17 82 34 107 40 61 12 180 6 265 -16z m-1890
-1740 c81 -22 153 -56 224 -109 72 -53 112 -109 118 -168 5 -38 1 -48 -26 -80
-79 -89 -299 -101 -489 -26 -90 36 -116 36 -160 3 -100 -77 -79 -219 49 -339
142 -132 407 -237 809 -320 l155 -31 110 21 c376 75 713 214 842 347 108 112
121 253 29 323 -40 31 -69 31 -138 4 -112 -45 -152 -53 -263 -53 -133 -1 -199
18 -245 70 -79 90 5 220 200 313 250 118 523 78 706 -103 157 -157 188 -397
79 -605 -77 -146 -234 -278 -460 -386 -116 -56 -328 -135 -362 -135 -24 0 -13
-15 43 -55 147 -108 244 -289 245 -457 0 -103 -13 -162 -52 -241 -61 -120
-166 -228 -301 -309 l-67 -40 -89 59 c-49 32 -106 68 -127 79 l-39 21 85 55
c220 143 300 277 255 430 -30 104 -147 206 -307 268 -115 44 -148 46 -254 15
-140 -41 -211 -79 -286 -154 -50 -50 -70 -79 -84 -119 -47 -144 21 -288 191
-403 40 -27 162 -94 270 -150 289 -148 395 -223 467 -332 154 -234 89 -516
-159 -693 l-64 -46 -40 36 c-21 19 -57 47 -79 62 l-41 27 43 27 c162 104 225
274 152 408 -56 103 -137 157 -420 282 -450 198 -600 334 -653 589 -45 218 52
437 268 603 19 15 32 28 30 30 -3 2 -68 24 -145 50 -403 132 -629 294 -719
518 -113 277 12 575 287 687 135 55 275 64 412 27z m704 -1544 l84 0 -6 -326
c-4 -180 -8 -329 -11 -331 -2 -2 -54 21 -115 51 l-111 56 0 281 0 282 38 -7
c20 -3 75 -6 121 -6z m-279 -1029 l121 -59 -44 -31 c-92 -63 -147 -156 -147
-247 0 -58 38 -141 93 -200 52 -57 125 -110 280 -203 109 -66 194 -143 232
-213 27 -48 30 -62 30 -143 0 -103 -11 -130 -82 -206 -31 -33 -41 -50 -32 -53
8 -2 54 -14 103 -25 122 -29 152 -50 126 -91 -14 -22 -141 -25 -253 -6 -52 9
-97 16 -100 16 -4 0 -8 -66 -9 -147 -3 -168 9 -151 -100 -138 l-58 6 0 88 c0
48 -3 122 -6 164 l-7 76 -65 38 c-120 71 -172 155 -172 283 0 85 40 171 107
230 25 22 44 42 42 43 -2 2 -35 25 -74 52 -203 142 -289 281 -288 465 0 91 22
167 70 243 28 44 92 117 103 117 4 0 63 -27 130 -59z m248 -111 l92 -43 -2
-231 -3 -231 -26 -3 c-17 -2 -51 12 -98 40 l-71 43 0 161 c0 89 -3 196 -7 239
-5 65 -4 77 8 73 8 -3 56 -25 107 -48z m2237 -1184 c19 -8 35 -19 35 -23 0
-17 -365 -331 -556 -480 -159 -123 -247 -183 -405 -272 l-122 -70 -29 62 c-18
37 -49 81 -78 108 l-49 46 92 57 c107 67 282 190 469 331 194 147 301 208 416
240 65 18 185 18 227 1z M4444 3010 c-129 -73 -161 -192 -74 -275 l30 -29 0
128 c0 116 1 127 18 122 9 -2 33 -8 52 -11 19 -4 52 -16 73 -27 l39 -19 -4
-95 c-1 -52 0 -94 4 -94 3 0 20 17 37 37 78 94 35 208 -105 281 -17 9 -30 5
-70 -18z"/></g>
<path d="M1102.2546855983771 1039.0V415.6H1260.3175659229207V585.0434077079108L1236.29200811359 587.5724137931035Q1240.0855172413792 533.1987829614604 1269.1690872210952 491.4701825557809Q1298.2526572008112 449.7415821501014 1340.6135091277888 426.348275862069Q1382.9743610547666 402.95496957403657 1427.2319675456388 402.95496957403657Q1458.8445436105476 402.95496957403657 1487.2958620689656 411.17423935091284Q1515.7471805273833 419.3935091277891 1546.0952535496956 438.36105476673436L1470.2250709939146 579.9853955375254Q1456.3155375253548 572.3983772819472 1434.818985801217 566.0758620689655Q1413.322434077079 559.7533468559839 1391.825882352941 559.7533468559839Q1366.5358215010142 559.7533468559839 1343.1425152129818 568.6048681541583Q1319.7492089249492 577.4563894523327 1301.4139148073023 596.4239350912778Q1283.078620689655 615.3914807302231 1271.698093306288 647.0040567951319Q1266.6400811359026 664.7070993914808 1263.4788235294118 691.8939148073023Q1260.3175659229207 719.0807302231237 1260.3175659229207 770.9253549695741V1039.0Z M2040.5159432048679 1039.0 2027.8709127789043 945.4267748478702V645.7395537525356Q2027.8709127789043 590.1014198782962 1993.0970791075047 562.9146044624747Q1958.323245436105 535.7277890466532 1898.8916024340767 535.7277890466532Q1849.5759837728192 535.7277890466532 1798.3636105476671 555.3275862068966Q1747.1512373225148 574.92738336714 1707.951643002028 610.3334685598377L1628.287951318458 502.85070993914815Q1694.0421095334682 449.7415821501014 1762.9575253549692 426.348275862069Q1831.8729411764702 402.95496957403657 1911.5366328600403 402.95496957403657Q2040.5159432048679 402.95496957403657 2112.5926166328595 467.44462474645036Q2184.6692900608514 531.9342799188641 2184.6692900608514 645.7395537525356V1039.0ZM1852.1049898580118 1051.6450304259636Q1783.821825557809 1051.6450304259636 1730.0804462474644 1026.3549695740367Q1676.3390669371195 1001.0649087221095 1645.358742393509 954.2782961460446Q1614.3784178498984 907.4916835699797 1614.3784178498984 846.795537525355Q1614.3784178498984 792.421906693712 1636.5072210953344 753.8545638945234Q1658.6360243407705 715.2872210953346 1695.3066125760647 695.0551724137931Q1726.9191886409733 676.0876267748479 1765.4865314401618 668.5006085192698Q1804.0538742393505 660.9135902636917 1848.3114807302227 660.9135902636917H2041.7804462474642V777.2478701825557H1871.072535496957Q1850.8404868154155 777.2478701825557 1831.240689655172 780.4091277890466Q1811.6408924949287 783.5703853955375 1797.7313590263689 794.9509127789047Q1785.0863286004053 803.8024340770792 1778.7638133874236 817.0797160243408Q1772.441298174442 830.3569979716025 1772.441298174442 846.795537525355Q1772.441298174442 882.2016227180527 1800.2603651115614 903.6981744421906Q1828.0794320486812 925.1947261663286 1874.866044624746 925.1947261663286Q1916.5946450304257 925.1947261663286 1951.368478701825 906.8594320486816Q1986.1423123732247 888.5241379310345 2007.0066125760645 856.2793103448275Q2027.8709127789043 824.0344827586207 2027.8709127789043 782.3058823529411L2069.599513184584 865.7630831643003Q2053.1609736308314 931.5172413793103 2019.651643002028 972.6135902636917Q1986.1423123732247 1013.709939148073 1943.1492089249489 1032.6774847870183Q1900.156105476673 1051.6450304259636 1852.1049898580118 1051.6450304259636Z M2528.6141176470583 1039.0 2273.1845030425957 415.6H2445.156916835699L2591.839269776876 834.1505070993915L2741.0506288032448 415.6H2910.4940365111556L2657.593427991886 1039.0Z M3006.596267748478 1039.0V415.6H3163.394645030425V1039.0ZM3001.5382555780925 319.49776876267754V157.64137931034486H3169.717160243407V319.49776876267754Z M3603.441703853955 1051.6450304259636Q3512.3974847870177 1051.6450304259636 3441.585314401622 1009.916430020284Q3370.7731440162265 968.1878296146044 3329.676795131845 894.214401622718Q3288.580446247464 820.2409736308316 3288.580446247464 726.6677484787019Q3288.580446247464 631.8300202839757 3329.0445436105474 559.1210953346856Q3369.5086409736305 486.4121703853956 3440.953062880324 444.6835699797161Q3512.3974847870177 402.95496957403657 3603.441703853955 402.95496957403657Q3693.2214198782954 402.95496957403657 3764.0335902636907 444.6835699797161Q3834.8457606490865 486.4121703853956 3875.3098580121696 559.1210953346856Q3915.773955375253 631.8300202839757 3915.773955375253 726.6677484787019Q3915.773955375253 820.2409736308316 3875.3098580121696 893.5821501014199Q3834.8457606490865 966.9233265720081 3764.0335902636907 1009.2841784989859Q3693.2214198782954 1051.6450304259636 3603.441703853955 1051.6450304259636ZM3603.441703853955 913.8141987829615Q3651.4928194726162 913.8141987829615 3686.2666531440154 891.0531440162272Q3721.040486815415 868.2920892494928 3739.375780933062 826.5634888438134Q3757.711075050709 784.8348884381339 3757.711075050709 726.6677484787019Q3757.711075050709 667.2361054766734 3739.375780933062 626.1397565922921Q3721.040486815415 585.0434077079108 3686.2666531440154 562.9146044624747Q3651.4928194726162 540.7858012170386 3603.441703853955 540.7858012170386Q3554.1260851926972 540.7858012170386 3518.7199999999993 562.9146044624747Q3483.3139148073014 585.0434077079108 3464.3463691683564 626.1397565922921Q3445.378823529411 667.2361054766734 3445.378823529411 726.6677484787019Q3445.378823529411 784.8348884381339 3464.3463691683564 826.5634888438134Q3483.3139148073014 868.2920892494928 3518.7199999999993 891.0531440162272Q3554.1260851926972 913.8141987829615 3603.441703853955 913.8141987829615Z"/>
</g>
</svg>